<mxfile host="app.diagrams.net" modified="2022-05-26T08:21:34.040Z" agent="5.0 (Windows NT 10.0; Win64; x64) AppleWebKit/537.36 (KHTML, like Gecko) Chrome/100.0.4896.75 Safari/537.36" etag="6CRguQNtcRrNAW2Tnw5E" version="18.1.2" type="github">
  <diagram id="Wl3C7Fg9lBJ9E0Ofv2fb" name="第 1 页">
    <mxGraphModel dx="1038" dy="556" grid="1" gridSize="10" guides="1" tooltips="1" connect="1" arrows="1" fold="1" page="1" pageScale="1" pageWidth="827" pageHeight="1169" math="0" shadow="0">
      <root>
        <mxCell id="0" />
        <mxCell id="1" parent="0" />
        <mxCell id="AMpGgfOqyZVrMLvszPb5-1" value="数据源" style="rounded=1;whiteSpace=wrap;html=1;" vertex="1" parent="1">
          <mxGeometry x="330" y="170" width="120" height="60" as="geometry" />
        </mxCell>
        <mxCell id="AMpGgfOqyZVrMLvszPb5-2" value="数据源" style="rounded=1;whiteSpace=wrap;html=1;" vertex="1" parent="1">
          <mxGeometry x="340" y="180" width="120" height="60" as="geometry" />
        </mxCell>
        <mxCell id="AMpGgfOqyZVrMLvszPb5-6" value="" style="edgeStyle=orthogonalEdgeStyle;rounded=0;orthogonalLoop=1;jettySize=auto;html=1;startArrow=none;" edge="1" parent="1" source="AMpGgfOqyZVrMLvszPb5-7" target="AMpGgfOqyZVrMLvszPb5-5">
          <mxGeometry relative="1" as="geometry" />
        </mxCell>
        <mxCell id="AMpGgfOqyZVrMLvszPb5-3" value="数据源" style="rounded=1;whiteSpace=wrap;html=1;" vertex="1" parent="1">
          <mxGeometry x="350" y="190" width="120" height="60" as="geometry" />
        </mxCell>
        <mxCell id="AMpGgfOqyZVrMLvszPb5-5" value="数据池" style="whiteSpace=wrap;html=1;rounded=1;" vertex="1" parent="1">
          <mxGeometry x="350" y="330" width="120" height="60" as="geometry" />
        </mxCell>
        <mxCell id="AMpGgfOqyZVrMLvszPb5-7" value="定时拉取数据库中某个时间段的数据" style="text;html=1;align=center;verticalAlign=middle;resizable=0;points=[];autosize=1;strokeColor=none;fillColor=none;" vertex="1" parent="1">
          <mxGeometry x="305" y="280" width="210" height="20" as="geometry" />
        </mxCell>
        <mxCell id="AMpGgfOqyZVrMLvszPb5-8" value="" style="edgeStyle=orthogonalEdgeStyle;rounded=0;orthogonalLoop=1;jettySize=auto;html=1;endArrow=none;" edge="1" parent="1" source="AMpGgfOqyZVrMLvszPb5-3" target="AMpGgfOqyZVrMLvszPb5-7">
          <mxGeometry relative="1" as="geometry">
            <mxPoint x="410" y="250" as="sourcePoint" />
            <mxPoint x="410" y="330" as="targetPoint" />
          </mxGeometry>
        </mxCell>
      </root>
    </mxGraphModel>
  </diagram>
</mxfile>
